# xmcd CD database file
#
# Track frame offsets:
#	150
#	15482
#	28972
#	40547
#	56252
#	72860
#	88725
#	103050
#	118635
#	133930
#	150142
#	160282
#
# Disc length: 2299 seconds
#
# Revision: 3
# Processed by: cddbd v1.5.2PL0 Copyright (c) Steve Scherf et al.
# Submitted via: CDex 1.51
#
DISCID=9108f90c
DTITLE=Hole - Live Through This
DYEAR=1994
DGENRE=Alternative Rock
TTITLE0=Violet
TTITLE1=Miss World
TTITLE2=Plump
TTITLE3=Asking for It
TTITLE4=Jennifer's Body
TTITLE5=Doll Parts
TTITLE6=Credit in the Straight World
TTITLE7=Softer. Softest
TTITLE8=She Walks on Me
TTITLE9=I Think That I Would Die
TTITLE10=Gutless
TTITLE11=Rock Star
EXTD=YEAR: 1994
EXTT0=
EXTT1=
EXTT2=
EXTT3=
EXTT4=
EXTT5=
EXTT6=
EXTT7=
EXTT8=
EXTT9=
EXTT10=
EXTT11=
PLAYORDER=
